<mxfile host="app.diagrams.net" modified="2024-06-04T04:32:13.553Z" agent="Mozilla/5.0 (Macintosh; Intel Mac OS X 10_15_7) AppleWebKit/537.36 (KHTML, like Gecko) Chrome/125.0.0.0 Safari/537.36" version="24.4.13" etag="M-qs47b-6ge9-mqQ4-5s" type="github">
  <diagram name="Page-1" id="Cv--0vc-YDIsw0oIE6CE">
    <mxGraphModel>
      <root>
        <mxCell id="0" />
        <mxCell id="1" parent="0" />
      </root>
    </mxGraphModel>
  </diagram>
</mxfile>
